<svg xmlns="http://www.w3.org/2000/svg" viewBox="0 0 24 24" fill="#302E38">
  <circle cx="12" cy="12" r="10" opacity="0.95"/>
  <path d="M12 6.2c1.6.4 2.3 1.7 2.4 3.2-1.1-.5-2.5-.2-3.3.7-.8.9-.9 2.2-.3 3.2-1.7-.1-3-1-3.4-2.6C8 8.7 9.9 6.5 12 6.2z" fill="#fff" opacity="0.9"/>
  <path d="M16.8 10.6c.5 1.6-.4 2.9-1.7 3.6.1-1.2-.6-2.5-1.8-2.9-1.2-.4-2.5.1-3.2 1.1-.6-1.6-.1-3.3 1.3-4.2 1.4-.9 3.4-.5 4.4 1.2z" fill="#fff" opacity="0.85"/>
  <path d="M13.7 17.6c-1.5 1-3 .6-4.1-.4 1.2-.3 2.1-1.4 2.1-2.7s-.9-2.4-2.1-2.7c1.1-1.3 2.8-1.7 4.3-.8 1.5.9 2.1 2.8 1.3 4.1-.3.5-.8 1-1.5 1.5z" fill="#fff" opacity="0.85"/>
</svg>
